<svg width="60" height="60" viewBox="0 0 60 60" fill="none" xmlns="http://www.w3.org/2000/svg">
<g filter="url(#filter0_d_738_240)">
<g clip-path="url(#clip0_738_240)">
<path d="M10 25C10 13.9543 18.9543 5 30 5C41.0457 5 50 13.9543 50 25C50 36.0457 41.0457 45 30 45C18.9543 45 10 36.0457 10 25Z" fill="#F7931A"/>
<g filter="url(#filter1_d_738_240)">
<path fill-rule="evenodd" clip-rule="evenodd" d="M32.2783 17.9766C32.1097 17.6759 31.7905 17.5 31.4458 17.5H28.5884C28.2252 17.5 27.892 17.6948 27.7266 18.0181C27.6562 18.1557 27.5749 18.3177 27.4858 18.5H32.5618C32.4561 18.2982 32.36 18.1223 32.2783 17.9766ZM25.5 25C25.5 23.2831 26.3188 21.0748 27.0193 19.5H33.0539C33.7369 20.9801 34.5 23.0663 34.5 25V33C34.5 34.1046 33.6046 35 32.5 35H27.5C26.3954 35 25.5 34.1046 25.5 33V25ZM27 25C26.7239 25 26.5 25.2239 26.5 25.5V31.5C26.5 31.7761 26.7239 32 27 32C27.2761 32 27.5 31.7761 27.5 31.5V25.5C27.5 25.2239 27.2761 25 27 25Z" fill="white"/>
<rect x="26.5" y="15.5" width="7" height="3" rx="1" fill="white"/>
</g>
</g>
</g>
<defs>
<filter id="filter0_d_738_240" x="0" y="0" width="60" height="60" filterUnits="userSpaceOnUse" color-interpolation-filters="sRGB">
<feFlood flood-opacity="0" result="BackgroundImageFix"/>
<feColorMatrix in="SourceAlpha" type="matrix" values="0 0 0 0 0 0 0 0 0 0 0 0 0 0 0 0 0 0 127 0" result="hardAlpha"/>
<feOffset dy="5"/>
<feGaussianBlur stdDeviation="5"/>
<feColorMatrix type="matrix" values="0 0 0 0 0 0 0 0 0 0 0 0 0 0 0 0 0 0 0.1 0"/>
<feBlend mode="normal" in2="BackgroundImageFix" result="effect1_dropShadow_738_240"/>
<feBlend mode="normal" in="SourceGraphic" in2="effect1_dropShadow_738_240" result="shape"/>
</filter>
<filter id="filter1_d_738_240" x="5" y="5" width="50" height="50" filterUnits="userSpaceOnUse" color-interpolation-filters="sRGB">
<feFlood flood-opacity="0" result="BackgroundImageFix"/>
<feColorMatrix in="SourceAlpha" type="matrix" values="0 0 0 0 0 0 0 0 0 0 0 0 0 0 0 0 0 0 127 0" result="hardAlpha"/>
<feOffset dy="5"/>
<feGaussianBlur stdDeviation="5"/>
<feColorMatrix type="matrix" values="0 0 0 0 0 0 0 0 0 0 0 0 0 0 0 0 0 0 0.25 0"/>
<feBlend mode="normal" in2="BackgroundImageFix" result="effect1_dropShadow_738_240"/>
<feBlend mode="normal" in="SourceGraphic" in2="effect1_dropShadow_738_240" result="shape"/>
</filter>
<clipPath id="clip0_738_240">
<path d="M10 25C10 13.9543 18.9543 5 30 5C41.0457 5 50 13.9543 50 25C50 36.0457 41.0457 45 30 45C18.9543 45 10 36.0457 10 25Z" fill="white"/>
</clipPath>
</defs>
</svg>
